HIERARCHY
ROOT Hips
{
	OFFSET 0.000000 121.760803 0.000000
	CHANNELS 6 Xposition Yposition Zposition Xrotation Yrotation Zrotation 
	JOINT Spine
	{
		OFFSET 0.072000 7.257294 -0.789700
		CHANNELS 3 Xrotation Yrotation Zrotation
		JOINT Spine1
		{
			OFFSET 0.000000 12.508769 -0.658067
			CHANNELS 3 Xrotation Yrotation Zrotation
			JOINT Spine1_split
			{
				OFFSET 0.000000 12.508769 -0.658067
				CHANNELS 3 Xrotation Yrotation Zrotation
				JOINT Spine2
				{
					OFFSET 0.000000 12.508769 -0.658067
					CHANNELS 3 Xrotation Yrotation Zrotation
					JOINT Neck
					{
						OFFSET 0.000000 14.033295 7.520400
						CHANNELS 3 Xrotation Yrotation Zrotation
						JOINT Head
						{
							OFFSET 0.000000 8.198502 5.703100
							CHANNELS 3 Xrotation Yrotation Zrotation
							JOINT HeadTop_End
							{
								OFFSET 0.000000 17.760803 13.332701
								CHANNELS 3 Xrotation Yrotation Zrotation
								End Site
								{
									OFFSET 0.000000 0.000000 0.000000
								}
							}
						}
					}
					JOINT LeftShoulder
					{
						OFFSET 6.292450 5.785301 -0.669000
						CHANNELS 3 Xrotation Yrotation Zrotation
						JOINT LeftShoulder_split
						{
							OFFSET 6.292450 5.785301 -0.669000
							CHANNELS 3 Xrotation Yrotation Zrotation
							JOINT LeftArm
							{
								OFFSET 13.907140 -6.093903 1.965100
								CHANNELS 3 Xrotation Yrotation Zrotation
								JOINT LeftForeArm
								{
									OFFSET 34.140198 0.000000 0.000000
									CHANNELS 3 Xrotation Yrotation Zrotation
									JOINT LeftHand
									{
										OFFSET 40.960209 0.000000 0.000000
										CHANNELS 3 Xrotation Yrotation Zrotation
										JOINT LeftHandThumb1
										{
											OFFSET 10.006996 -7.170425 9.573125
											CHANNELS 3 Xrotation Yrotation Zrotation
											JOINT LeftHandThumb2
											{
												OFFSET 1.835007 -1.059448 1.059443
												CHANNELS 3 Xrotation Yrotation Zrotation
												JOINT LeftHandThumb3
												{
													OFFSET 2.112267 -1.219513 1.219518
													CHANNELS 3 Xrotation Yrotation Zrotation
													JOINT LeftHandThumb4
													{
														OFFSET 4.843811 -2.796570 2.796576
														CHANNELS 3 Xrotation Yrotation Zrotation
														End Site
														{
															OFFSET 0.000000 0.000000 0.000000
														}
													}
												}
											}
										}
										JOINT LeftHandIndex1
										{
											OFFSET 18.389847 -0.922348 4.596882
											CHANNELS 3 Xrotation Yrotation Zrotation
											JOINT LeftHandIndex2
											{
												OFFSET 4.711273 0.000000 0.000000
												CHANNELS 3 Xrotation Yrotation Zrotation
												JOINT LeftHandIndex3
												{
													OFFSET 2.886131 0.000000 0.000000
													CHANNELS 3 Xrotation Yrotation Zrotation
													JOINT LeftHandIndex4
													{
														OFFSET 6.145912 0.000000 0.000000
														CHANNELS 3 Xrotation Yrotation Zrotation
														End Site
														{
															OFFSET 0.000000 0.000000 0.000000
														}
													}
												}
											}
										}
										JOINT LeftHandMiddle1
										{
											OFFSET 18.013008 0.000000 0.000000
											CHANNELS 3 Xrotation Yrotation Zrotation
											JOINT LeftHandMiddle2
											{
												OFFSET 4.946693 0.000000 0.000000
												CHANNELS 3 Xrotation Yrotation Zrotation
												JOINT LeftHandMiddle3
												{
													OFFSET 3.342232 0.000000 0.000000
													CHANNELS 3 Xrotation Yrotation Zrotation
													JOINT LeftHandMiddle4
													{
														OFFSET 4.461754 0.000000 0.000000
														CHANNELS 3 Xrotation Yrotation Zrotation
														End Site
														{
															OFFSET 0.000000 0.000000 0.000000
														}
													}
												}
											}
										}
										JOINT LeftHandRing1
										{
											OFFSET 15.849892 -0.102921 -4.126150
											CHANNELS 3 Xrotation Yrotation Zrotation
											JOINT LeftHandRing2
											{
												OFFSET 3.527054 0.000000 0.000000
												CHANNELS 3 Xrotation Yrotation Zrotation
												JOINT LeftHandRing3
												{
													OFFSET 2.961098 0.000000 0.000000
													CHANNELS 3 Xrotation Yrotation Zrotation
													JOINT LeftHandRing4
													{
														OFFSET 4.927200 0.000000 0.000000
														CHANNELS 3 Xrotation Yrotation Zrotation
														End Site
														{
															OFFSET 0.000000 0.000000 0.000000
														}
													}
												}
											}
										}
										JOINT LeftHandPinky1
										{
											OFFSET 12.791824 -0.832031 -6.799156
											CHANNELS 3 Xrotation Yrotation Zrotation
											JOINT LeftHandPinky2
											{
												OFFSET 3.327133 0.000000 0.000000
												CHANNELS 3 Xrotation Yrotation Zrotation
												JOINT LeftHandPinky3
												{
													OFFSET 3.014900 0.000000 0.000000
													CHANNELS 3 Xrotation Yrotation Zrotation
													JOINT LeftHandPinky4
													{
														OFFSET 5.847786 0.000000 0.000000
														CHANNELS 3 Xrotation Yrotation Zrotation
														End Site
														{
															OFFSET 0.000000 0.000000 0.000000
														}
													}
												}
											}
										}
									}
								}
							}
						}
					}
					JOINT RightShoulder
					{
						OFFSET -6.292450 5.785301 -0.669000
						CHANNELS 3 Xrotation Yrotation Zrotation
						JOINT RightShoulder_split
						{
							OFFSET -6.292450 5.785301 -0.669000
							CHANNELS 3 Xrotation Yrotation Zrotation
							JOINT RightArm
							{
								OFFSET -13.907140 -6.093903 1.965100
								CHANNELS 3 Xrotation Yrotation Zrotation
								JOINT RightForeArm
								{
									OFFSET -34.140198 0.000000 0.000000
									CHANNELS 3 Xrotation Yrotation Zrotation
									JOINT RightHand
									{
										OFFSET -40.960209 0.000000 0.000000
										CHANNELS 3 Xrotation Yrotation Zrotation
										JOINT RightHandThumb1
										{
											OFFSET -10.007050 -7.170456 9.573117
											CHANNELS 3 Xrotation Yrotation Zrotation
											JOINT RightHandThumb2
											{
												OFFSET -1.835007 -1.059448 1.059443
												CHANNELS 3 Xrotation Yrotation Zrotation
												JOINT RightHandThumb3
												{
													OFFSET -2.112267 -1.219513 1.219518
													CHANNELS 3 Xrotation Yrotation Zrotation
													JOINT RightHandThumb4
													{
														OFFSET -4.843834 -2.796585 2.796590
														CHANNELS 3 Xrotation Yrotation Zrotation
														End Site
														{
															OFFSET 0.000000 0.000000 0.000000
														}
													}
												}
											}
										}
										JOINT RightHandIndex1
										{
											OFFSET -18.389870 -0.922424 4.596786
											CHANNELS 3 Xrotation Yrotation Zrotation
											JOINT RightHandIndex2
											{
												OFFSET -4.711273 0.000000 0.000000
												CHANNELS 3 Xrotation Yrotation Zrotation
												JOINT RightHandIndex3
												{
													OFFSET -2.886131 0.000000 0.000000
													CHANNELS 3 Xrotation Yrotation Zrotation
													JOINT RightHandIndex4
													{
														OFFSET -6.145920 0.000000 0.000000
														CHANNELS 3 Xrotation Yrotation Zrotation
														End Site
														{
															OFFSET 0.000000 0.000000 0.000000
														}
													}
												}
											}
										}
										JOINT RightHandMiddle1
										{
											OFFSET -18.013008 0.000000 0.000000
											CHANNELS 3 Xrotation Yrotation Zrotation
											JOINT RightHandMiddle2
											{
												OFFSET -4.946693 0.000000 0.000000
												CHANNELS 3 Xrotation Yrotation Zrotation
												JOINT RightHandMiddle3
												{
													OFFSET -3.342232 0.000000 0.000000
													CHANNELS 3 Xrotation Yrotation Zrotation
													JOINT RightHandMiddle4
													{
														OFFSET -4.461754 0.000000 0.000000
														CHANNELS 3 Xrotation Yrotation Zrotation
														End Site
														{
															OFFSET 0.000000 0.000000 0.000000
														}
													}
												}
											}
										}
										JOINT RightHandRing1
										{
											OFFSET -15.849876 -0.102936 -4.126237
											CHANNELS 3 Xrotation Yrotation Zrotation
											JOINT RightHandRing2
											{
												OFFSET -3.527054 0.000000 0.000000
												CHANNELS 3 Xrotation Yrotation Zrotation
												JOINT RightHandRing3
												{
													OFFSET -2.961098 0.000000 0.000000
													CHANNELS 3 Xrotation Yrotation Zrotation
													JOINT RightHandRing4
													{
														OFFSET -4.927200 0.000000 0.000000
														CHANNELS 3 Xrotation Yrotation Zrotation
														End Site
														{
															OFFSET 0.000000 0.000000 0.000000
														}
													}
												}
											}
										}
										JOINT RightHandPinky1
										{
											OFFSET -12.791786 -0.832077 -6.799222
											CHANNELS 3 Xrotation Yrotation Zrotation
											JOINT RightHandPinky2
											{
												OFFSET -3.327133 0.000000 0.000000
												CHANNELS 3 Xrotation Yrotation Zrotation
												JOINT RightHandPinky3
												{
													OFFSET -3.014900 0.000000 0.000000
													CHANNELS 3 Xrotation Yrotation Zrotation
													JOINT RightHandPinky4
													{
														OFFSET -5.847786 0.000000 0.000000
														CHANNELS 3 Xrotation Yrotation Zrotation
														End Site
														{
															OFFSET 0.000000 0.000000 0.000000
														}
													}
												}
											}
										}
									}
								}
							}
						}
					}
				}
			}
		}
	}
	JOINT LeftUpLeg
	{
		OFFSET 13.026900 -6.336304 -1.092800
		CHANNELS 3 Xrotation Yrotation Zrotation
		JOINT LeftLeg
		{
			OFFSET 0.524474 -46.096886 9.782700
			CHANNELS 3 Xrotation Yrotation Zrotation
			JOINT LeftFoot
			{
				OFFSET -0.524474 -53.427422 -12.948200
				CHANNELS 3 Xrotation Yrotation Zrotation
				JOINT LeftToeBase
				{
					OFFSET 0.192200 -14.009700 16.364100
					CHANNELS 3 Xrotation Yrotation Zrotation
					JOINT LeftToe_End
					{
						OFFSET -1.784700 -0.561700 9.474800
						CHANNELS 3 Xrotation Yrotation Zrotation
						End Site
						{
							OFFSET 0.000000 0.000000 0.000000
						}
					}
				}
			}
		}
	}
	JOINT RightUpLeg
	{
		OFFSET -12.883000 -6.336304 -1.092800
		CHANNELS 3 Xrotation Yrotation Zrotation
		JOINT RightLeg
		{
			OFFSET -0.524587 -46.096825 9.782800
			CHANNELS 3 Xrotation Yrotation Zrotation
			JOINT RightFoot
			{
				OFFSET 0.524587 -53.427383 -12.948300
				CHANNELS 3 Xrotation Yrotation Zrotation
				JOINT RightToeBase
				{
					OFFSET -0.192200 -14.009700 16.364100
					CHANNELS 3 Xrotation Yrotation Zrotation
					JOINT RightToe_End
					{
						OFFSET 1.784700 -0.561700 9.474800
						CHANNELS 3 Xrotation Yrotation Zrotation
						End Site
						{
							OFFSET 0.000000 0.000000 0.000000
						}
					}
				}
			}
		}
	}
}
MOTION
Frames: 4
Frame Time: 0.016667
-1.439190 113.682007 -0.292398 5.072526 -14.246079 11.095164 1.855340 4.839467 -0.368006 5.177706 9.319220 2.133658 0.000000 0.000000 0.000000 5.034875 9.321730 2.400945 -1.845152 -1.005207 -1.922206 -8.332132 -2.916353 -12.042403 0.000000 -0.000000 -0.000000 0.683995 -0.873506 -14.226761 0.000000 0.000000 0.000000 -18.744841 -25.288442 -72.307736 0.000020 -68.920700 0.000031 -36.056582 9.257042 42.116162 -10.930937 -6.748103 10.337280 -18.089304 8.879990 2.392718 5.698776 5.288814 3.340164 0.000000 -0.000003 0.000002 5.890356 8.200065 -88.621807 6.193158 5.841079 -93.357648 1.839126 4.262513 -46.661486 -0.000001 -0.000001 -0.000001 7.765552 7.904026 -107.399486 4.299863 5.642374 -74.600801 2.407281 4.733111 -53.896961 0.000000 0.000001 -0.000001 7.314738 8.035631 -105.794986 3.608029 5.405416 -67.422908 3.239281 5.237602 -63.448790 0.000001 -0.000001 -0.000001 10.390454 6.780231 -113.877121 1.747955 4.174855 -45.422168 1.832432 4.256184 -46.570986 -0.000000 -0.000001 0.000001 -0.133326 13.109088 18.148151 0.000000 0.000000 0.000000 -38.704954 64.841431 69.860247 -0.000029 37.971446 0.000027 -24.338571 -7.627329 -15.970116 17.912436 17.120568 -32.483543 12.694387 -52.014250 20.210830 2.934329 3.697801 -26.040882 0.000000 -0.000002 0.000000 0.276355 -8.899012 1.740158 5.888270 -4.491827 105.344221 2.534108 -4.146038 62.853621 0.000002 0.000001 0.000001 4.166140 -8.600809 42.153213 7.050168 -3.996504 120.947118 0.504890 -2.110848 26.901272 -0.000000 -0.000002 -0.000001 -0.361100 -4.549277 57.044220 4.703202 -4.656960 90.567072 2.413051 -4.081850 61.166045 -0.000001 0.000000 0.000001 -5.324603 -0.292072 51.887301 3.524514 -4.517628 75.909268 1.722451 -3.617754 50.907869 -0.000000 -0.000000 -0.000003 -28.012692 -8.612746 -13.206517 13.569058 -4.558461 -7.356707 10.416407 -28.045561 6.783048 -0.000062 -0.675663 -0.000000 -0.000000 -0.000000 -0.000000 2.537723 -15.671941 -12.749873 25.331372 5.452476 -4.648375 -0.523194 0.438772 9.956800 -34.900190 0.421903 -2.597932 -0.000000 0.000000 0.000000 
-1.423813 113.651932 -0.250762 5.123523 -14.311660 10.819739 1.913541 4.931973 -0.248571 5.160749 9.282535 2.112638 0.000000 0.000000 0.000000 5.022807 9.284438 2.374296 -2.064537 -1.057510 -1.877889 -8.628698 -3.003492 -11.986657 -0.000000 -0.000000 0.000000 0.681856 -0.881331 -14.238708 0.000000 0.000000 0.000000 -18.870675 -25.494069 -72.321841 0.000058 -68.978012 0.000056 -35.909720 8.762848 42.291818 -10.930950 -6.748109 10.337264 -18.089305 8.879992 2.392719 5.669427 5.325180 3.432860 0.000000 0.000001 0.000001 5.684040 8.194812 -88.397046 6.193762 5.841048 -93.363714 1.842326 4.265523 -46.704318 0.000000 -0.000003 -0.000002 7.765548 7.904031 -107.399493 4.299869 5.642383 -74.600788 2.407305 4.733119 -53.896985 -0.000000 0.000003 0.000002 7.314728 8.035621 -105.794993 3.608021 5.405412 -67.422901 3.239270 5.237598 -63.448776 -0.000001 -0.000000 0.000001 10.390449 6.780247 -113.877128 1.747973 4.174849 -45.422168 1.832415 4.256189 -46.570972 -0.000000 0.000003 -0.000001 -0.124892 13.084225 18.116894 0.000000 0.000000 0.000000 -38.677964 64.587683 69.785047 0.000024 38.471587 -0.000016 -23.446970 -7.328095 -15.998974 17.912434 17.120585 -32.483557 12.694387 -52.014250 20.210830 2.934331 3.697809 -26.040880 0.000001 -0.000001 -0.000001 0.276366 -8.899006 1.740178 5.888271 -4.491825 105.344214 2.534128 -4.146057 62.853627 -0.000000 -0.000001 -0.000003 4.166163 -8.600803 42.153230 7.050167 -3.996501 120.947132 0.504910 -2.110845 26.901284 0.000000 0.000002 0.000000 -0.361085 -4.549270 57.044251 4.703199 -4.656958 90.567072 2.413039 -4.081854 61.166024 0.000001 -0.000001 -0.000001 -5.324603 -0.292082 51.887315 3.524517 -4.517627 75.909268 1.722449 -3.617758 50.907876 -0.000000 -0.000001 -0.000002 -28.120135 -8.420919 -12.933596 13.897590 -4.797926 -7.359093 10.299614 -28.034271 6.863620 -0.000053 -0.658354 0.000002 -0.000000 -0.000000 0.000000 2.916499 -15.747681 -12.448899 24.888632 5.585157 -4.525675 -1.017675 0.423134 9.849760 -34.230876 0.408980 -2.622296 -0.000000 0.000000 -0.000000 
-1.409250 113.629837 -0.211842 5.178260 -14.374562 10.542024 1.969705 5.029234 -0.119939 5.142801 9.248734 2.093727 0.000000 0.000000 0.000000 5.009901 9.249995 2.349699 -2.293330 -1.110686 -1.843282 -8.922895 -3.110393 -11.930524 -0.000000 0.000000 0.000000 0.679169 -0.891286 -14.251476 0.000000 0.000000 0.000000 -19.028036 -25.737565 -72.345958 0.000029 -69.038685 0.000028 -35.733490 8.163540 42.501576 -10.930928 -6.748098 10.337275 -18.089300 8.879984 2.392725 5.634740 5.367964 3.542334 0.000004 -0.000000 0.000002 5.440057 8.186714 -88.133394 6.194498 5.841003 -93.370858 1.846084 4.269051 -46.755015 0.000000 0.000002 0.000002 7.765556 7.904029 -107.399500 4.299875 5.642372 -74.600815 2.407290 4.733128 -53.896965 -0.000002 0.000002 -0.000001 7.314727 8.035622 -105.794999 3.608016 5.405427 -67.422881 3.239308 5.237605 -63.448769 -0.000002 0.000000 -0.000002 10.390448 6.780234 -113.877128 1.747975 4.174848 -45.422165 1.832409 4.256193 -46.570965 -0.000001 -0.000001 -0.000000 -0.114677 13.054874 18.076912 0.000000 0.000000 0.000000 -38.651788 64.286355 69.702804 0.000007 39.069686 -0.000010 -22.411439 -6.958786 -16.094356 17.912426 17.120552 -32.483550 12.694386 -52.014247 20.210829 2.934328 3.697805 -26.040880 0.000000 0.000000 0.000000 0.276350 -8.899015 1.740172 5.888272 -4.491827 105.344214 2.534112 -4.146047 62.853627 -0.000001 -0.000000 0.000000 4.166158 -8.600796 42.153213 7.050168 -3.996502 120.947132 0.504905 -2.110854 26.901277 -0.000001 0.000001 0.000002 -0.361103 -4.549277 57.044230 4.703200 -4.656959 90.567072 2.413028 -4.081875 61.166017 0.000000 0.000000 -0.000001 -5.324608 -0.292071 51.887308 3.524514 -4.517628 75.909268 1.722439 -3.617760 50.907872 -0.000000 0.000001 -0.000001 -28.223938 -8.253568 -12.653270 14.198529 -5.019072 -7.364840 10.194007 -28.023867 6.939624 -0.000021 -0.610972 -0.000000 -0.000000 -0.000000 -0.000000 3.321662 -15.819220 -12.135020 24.401652 5.740211 -4.397525 -1.517686 0.381723 9.749404 -33.527585 0.396067 -2.655650 -0.000000 0.000002 -0.000000 
-1.395248 113.615082 -0.175234 5.235777 -14.435516 10.263461 2.024035 5.130716 0.016057 5.123975 9.217469 2.076675 0.000000 0.000000 0.000000 4.996257 9.218046 2.326926 -2.529577 -1.164599 -1.816362 -9.215291 -3.233272 -11.874454 0.000000 -0.000001 -0.000000 0.676441 -0.901443 -14.262938 0.000000 0.000000 0.000000 -19.187222 -25.974199 -72.374966 -0.000039 -69.092691 -0.000058 -35.558754 7.571577 42.707612 -10.930949 -6.748097 10.337261 -18.089302 8.879988 2.392721 5.600978 5.409395 3.648637 0.000002 0.000004 0.000004 5.203230 8.176871 -87.878935 6.195204 5.840960 -93.377832 1.849746 4.272476 -46.804213 0.000000 0.000000 0.000002 7.765530 7.904016 -107.399513 4.299854 5.642391 -74.600808 2.407300 4.733126 -53.896968 -0.000001 -0.000001 -0.000001 7.314712 8.035632 -105.795006 3.608035 5.405403 -67.422901 3.239278 5.237608 -63.448755 -0.000000 -0.000001 -0.000002 10.390436 6.780228 -113.877135 1.747971 4.174849 -45.422155 1.832413 4.256166 -46.571003 -0.000000 0.000000 -0.000001 -0.104597 13.026400 18.035932 0.000000 0.000000 0.000000 -38.631007 63.992862 69.627939 0.000006 39.655392 -0.000003 -21.415110 -6.603397 -16.217260 17.912437 17.120578 -32.483553 12.694386 -52.014250 20.210827 2.934326 3.697806 -26.040885 0.000001 -0.000001 -0.000000 0.276356 -8.899011 1.740162 5.888266 -4.491827 105.344221 2.534127 -4.146056 62.853621 0.000001 0.000002 -0.000001 4.166157 -8.600803 42.153213 7.050169 -3.996502 120.947132 0.504889 -2.110864 26.901270 0.000000 -0.000000 0.000002 -0.361095 -4.549279 57.044224 4.703200 -4.656959 90.567072 2.413039 -4.081861 61.166024 -0.000000 -0.000000 0.000001 -5.324599 -0.292067 51.887291 3.524514 -4.517627 75.909268 1.722458 -3.617751 50.907879 0.000001 -0.000000 0.000004 -28.321137 -8.109181 -12.357487 14.467712 -5.223796 -7.392735 10.106303 -28.013454 7.021840 -0.000138 -0.535112 0.000002 -0.000000 -0.000002 -0.000000 3.746874 -15.878566 -11.821863 23.877609 5.908547 -4.246123 -2.010284 0.321417 9.646234 -32.809456 0.383153 -2.693842 -0.000000 -0.000001 -0.000000 
